<svg width="16" height="10" viewBox="0 0 16 10" fill="none" xmlns="http://www.w3.org/2000/svg">
<path d="M8.79413 8.91844L14.8813 2.56147C14.9823 2.45706 15.0624 2.33284 15.1171 2.19598C15.1718 2.05911 15.2 1.91231 15.2 1.76404C15.2 1.61578 15.1718 1.46898 15.1171 1.33211C15.0624 1.19525 14.9823 1.07103 14.8813 0.966615C14.6795 0.757429 14.4064 0.640015 14.1218 0.640015C13.8371 0.640015 13.5641 0.757429 13.3622 0.966615L7.97532 6.52615L2.64231 0.966615C2.44045 0.757429 2.16739 0.640014 1.88276 0.640014C1.59813 0.640014 1.32507 0.757429 1.12321 0.966614C1.02141 1.07063 0.940421 1.19468 0.88494 1.33156C0.829458 1.46844 0.800587 1.61544 0.799995 1.76404C0.800587 1.91264 0.829458 2.05964 0.88494 2.19653C0.940421 2.33341 1.02141 2.45745 1.12321 2.56147L7.21039 8.91844C7.31127 9.03245 7.43372 9.12343 7.57001 9.18566C7.7063 9.24789 7.85347 9.28002 8.00226 9.28002C8.15105 9.28002 8.29822 9.24789 8.43451 9.18566C8.5708 9.12343 8.69324 9.03245 8.79413 8.91844Z" fill="white"/>
</svg>
